<svg width="75" height="75" viewBox="0 0 75 75" fill="none" xmlns="http://www.w3.org/2000/svg">
<g id="award 1" clip-path="url(#clip0_52_1015)">
<g id="Medal">
<path id="Vector" d="M66.8254 67.5757L58.3545 45.3037C59.1915 44.8034 59.919 44.1394 60.4934 43.3514C61.1106 42.5032 61.533 41.5292 61.7307 40.499C61.9283 39.4688 61.8962 38.4076 61.6367 37.3912C61.4174 36.5025 61.4542 35.5698 61.743 34.7012C62.0319 33.8325 62.5608 33.0634 63.2687 32.483C64.088 31.8114 64.7478 30.9661 65.2005 30.0082C65.6531 29.0503 65.8873 28.0039 65.8859 26.9445C65.8846 25.885 65.6479 24.8391 65.1928 23.8824C64.7378 22.9257 64.0758 22.0821 63.2548 21.4125C62.5496 20.8298 62.0237 20.0593 61.738 19.1901C61.4524 18.321 61.4186 17.3888 61.6406 16.5013C61.898 15.4866 61.9287 14.4277 61.7305 13.3999C61.5323 12.372 61.1101 11.4005 60.4939 10.5543C59.862 9.68503 59.0463 8.96583 58.1047 8.44788C57.1632 7.92993 56.119 7.62597 55.0465 7.55765C54.1239 7.49556 53.2368 7.17801 52.4843 6.64052C51.7319 6.10303 51.1438 5.3668 50.7858 4.51417C50.3851 3.53812 49.7763 2.66125 49.0018 1.94473C48.2273 1.22821 47.3058 0.689312 46.3015 0.36562C45.283 0.0325667 44.204 -0.0743366 43.1398 0.0523617C42.0757 0.17906 41.052 0.536311 40.1401 1.09921C39.3449 1.58502 38.4312 1.84206 37.4994 1.84206C36.5676 1.84206 35.6538 1.58502 34.8587 1.09921C33.9467 0.536289 32.923 0.179025 31.8589 0.0523259C30.7947 -0.0743728 29.7158 0.032543 28.6972 0.36562C27.6933 0.689577 26.7721 1.22858 25.9979 1.94506C25.2238 2.66153 24.6151 3.53824 24.2145 4.51406C23.8555 5.36827 23.2657 6.10559 22.5111 6.64335C21.7565 7.1811 20.867 7.49803 19.9424 7.55859C18.8718 7.62798 17.8297 7.93248 16.8901 8.45041C15.9506 8.96834 15.1367 9.68698 14.5065 10.5552C13.8893 11.4034 13.4668 12.3774 13.2692 13.4076C13.0716 14.4378 13.1037 15.4989 13.3632 16.5153C13.5825 17.4041 13.5456 18.3368 13.2568 19.2055C12.968 20.0741 12.4391 20.8432 11.7312 21.4237C10.9119 22.0953 10.252 22.9406 9.7994 23.8985C9.34675 24.8563 9.11262 25.9028 9.11395 26.9622C9.11527 28.0216 9.35201 29.0675 9.80705 30.0242C10.2621 30.9809 10.924 31.8246 11.7451 32.4941C12.4503 33.0768 12.9761 33.8472 13.2618 34.7163C13.5474 35.5853 13.5812 36.5175 13.3593 37.405C13.1019 38.4196 13.0712 39.4785 13.2694 40.5064C13.4676 41.5342 13.8898 42.5058 14.506 43.352C15.0807 44.1395 15.8082 44.8031 16.6451 45.303L8.17448 67.5757C8.09465 67.7851 8.07658 68.013 8.12241 68.2324C8.16823 68.4517 8.27603 68.6534 8.43302 68.8133C8.59 68.9732 8.78957 69.0847 9.00804 69.1346C9.22652 69.1845 9.45472 69.1707 9.66557 69.0948L18.8919 65.7784L23.5805 74.3883C23.6812 74.5733 23.8298 74.7278 24.0109 74.8355C24.1919 74.9431 24.3987 75 24.6093 75C24.6357 75 24.6619 74.9988 24.6883 74.9972C24.9119 74.9821 25.1265 74.9032 25.3066 74.7698C25.4868 74.6364 25.6249 74.4542 25.7046 74.2447L33.6352 53.4041C34.061 53.2431 34.4709 53.043 34.8598 52.8064C35.6549 52.3209 36.5684 52.064 37.4999 52.064C38.4315 52.064 39.345 52.3209 40.1401 52.8064L40.1412 52.807C40.5291 53.0404 40.9377 53.2376 41.3617 53.396L49.2953 74.2437C49.375 74.4531 49.5131 74.6354 49.6933 74.7687C49.8734 74.9021 50.088 74.981 50.3116 74.9961C50.338 74.9978 50.3642 74.9989 50.3906 74.9989C50.6012 74.9989 50.808 74.9421 50.989 74.8344C51.1701 74.7268 51.3187 74.5723 51.4194 74.3872L56.108 65.7773L65.3343 69.0937C65.5452 69.1697 65.7734 69.1835 65.9919 69.1336C66.2103 69.0837 66.4099 68.9722 66.5669 68.8122C66.7239 68.6523 66.8317 68.4507 66.8775 68.2313C66.9233 68.012 66.9052 67.7851 66.8254 67.5757ZM24.4205 71.03L20.47 63.7761C20.3362 63.5307 20.1191 63.3412 19.8578 63.2417C19.5966 63.1423 19.3084 63.1394 19.0453 63.2337L11.2701 66.0279L18.8218 46.1737C19.1941 46.2609 19.5726 46.3193 19.9538 46.3486C20.8764 46.4107 21.7636 46.7282 22.516 47.2657C23.2685 47.8032 23.8566 48.5394 24.2145 49.3921C24.6152 50.368 25.224 51.2449 25.9984 51.9614C26.7728 52.6779 27.6942 53.2168 28.6983 53.5405C29.4225 53.7744 30.1784 53.8952 30.9394 53.8989L24.4205 71.03ZM33.6272 50.8125C33.0052 51.1967 32.3068 51.4404 31.5807 51.5267C30.8547 51.6129 30.1186 51.5397 29.4239 51.312C28.7435 51.0932 28.1191 50.7287 27.5942 50.2439C27.0692 49.759 26.6563 49.1655 26.3842 48.5047C25.8578 47.2459 24.9912 46.1585 23.8815 45.3646C22.7718 44.5706 21.4629 44.1014 20.1015 44.0095C19.3736 43.9628 18.6649 43.7564 18.0258 43.4048C17.3867 43.0532 16.8329 42.5651 16.4039 41.9753C15.9888 41.4049 15.7048 40.75 15.572 40.0572C15.4393 39.3644 15.4612 38.6508 15.636 37.9675C15.9628 36.6483 15.9096 35.2636 15.4827 33.9733C15.0558 32.6831 14.2726 31.5399 13.2236 30.6759C12.6706 30.2242 12.2251 29.6549 11.9197 29.0094C11.6142 28.364 11.4564 27.6586 11.4577 26.9445C11.459 26.2304 11.6194 25.5256 11.9273 24.8812C12.2351 24.2369 12.6826 23.6692 13.2373 23.2195C14.2838 22.3534 15.064 21.209 15.4879 19.9184C15.9117 18.6278 15.962 17.2437 15.6328 15.9258C15.4599 15.2441 15.4394 14.5327 15.5727 13.8422C15.706 13.1517 15.9899 12.4991 16.4041 11.9307C16.8348 11.3396 17.3907 10.8507 18.032 10.499C18.6733 10.1473 19.3843 9.94136 20.1144 9.89589C21.4736 9.80228 22.78 9.33228 23.8873 8.5385C24.9947 7.74472 25.8593 6.65847 26.3845 5.40128C26.6563 4.74041 27.0691 4.14685 27.5941 3.66207C28.1191 3.1773 28.7437 2.81301 29.4241 2.59464C30.1191 2.36716 30.8553 2.294 31.5815 2.38026C32.3077 2.46652 33.0063 2.71013 33.6287 3.0941C34.7947 3.80615 36.1345 4.18288 37.5008 4.18288C38.867 4.18288 40.2068 3.80615 41.3729 3.0941C41.9951 2.71022 42.6935 2.46667 43.4194 2.38041C44.1454 2.29415 44.8815 2.36726 45.5763 2.59464C46.2566 2.81339 46.881 3.17788 47.406 3.66272C47.9309 4.14756 48.3438 4.74107 48.6159 5.40187C49.1423 6.66072 50.009 7.74807 51.1187 8.54204C52.2284 9.33601 53.5373 9.80521 54.8987 9.89707C55.6266 9.94378 56.3352 10.1503 56.9743 10.5019C57.6134 10.8534 58.1672 11.3415 58.5963 11.9313C59.0114 12.5017 59.2954 13.1566 59.4281 13.8494C59.5608 14.5422 59.539 15.2558 59.3641 15.9391C59.0374 17.2583 59.0905 18.643 59.5174 19.9333C59.9443 21.2235 60.7275 22.3667 61.7765 23.2307C62.3296 23.6824 62.775 24.2517 63.0805 24.8972C63.3859 25.5426 63.5437 26.248 63.5424 26.9621C63.5411 27.6762 63.3807 28.381 63.0729 29.0254C62.765 29.6697 62.3175 30.2374 61.7628 30.6871C60.7163 31.5531 59.9361 32.6974 59.5122 33.988C59.0883 35.2785 59.038 36.6626 59.3671 37.9805C59.54 38.6621 59.5605 39.3735 59.4272 40.064C59.2939 40.7545 59.01 41.4072 58.5958 41.9755C58.1651 42.5667 57.6092 43.0555 56.9679 43.4073C56.3266 43.759 55.6156 43.9649 54.8855 44.0103C53.5263 44.104 52.2199 44.574 51.1126 45.3677C50.0052 46.1615 49.1406 47.2478 48.6154 48.505C48.3436 49.1658 47.9308 49.7594 47.4058 50.2442C46.8807 50.7289 46.2562 51.0932 45.5758 51.3116C44.8809 51.5398 44.1446 51.6133 43.4183 51.527C42.692 51.4408 41.9933 51.1968 41.3712 50.8121C40.2052 50.1002 38.8654 49.7235 37.4992 49.7236C36.133 49.7237 34.7932 50.1004 33.6272 50.8125ZM55.9546 63.2332C55.6915 63.1388 55.4033 63.1416 55.142 63.2411C54.8807 63.3406 54.6636 63.5302 54.5299 63.7757L50.5794 71.0296L44.0614 53.9016C44.8222 53.8971 45.5777 53.7756 46.3015 53.5412C47.3058 53.2173 48.2274 52.6782 49.002 51.9616C49.7766 51.2451 50.3856 50.3682 50.7865 49.3921C51.1451 48.5378 51.7347 47.8003 52.4891 47.2626C53.2435 46.7248 54.1329 46.408 55.0574 46.3477C55.435 46.3187 55.8098 46.2607 56.1786 46.1744L63.7298 66.0275L55.9546 63.2332Z" fill="#004D85"/>
<path id="Vector_2" d="M55.0781 26.9531C55.0781 23.4765 54.0472 20.078 52.1157 17.1873C50.1842 14.2965 47.4388 12.0435 44.2269 10.7131C41.0149 9.38262 37.4805 9.03451 34.0707 9.71277C30.6609 10.391 27.5287 12.0652 25.0704 14.5235C22.6121 16.9819 20.9379 20.114 20.2596 23.5238C19.5814 26.9336 19.9295 30.468 21.2599 33.68C22.5904 36.892 24.8434 39.6373 27.7341 41.5688C30.6248 43.5003 34.0234 44.5313 37.5 44.5313C42.1604 44.5261 46.6285 42.6724 49.9239 39.377C53.2193 36.0816 55.073 31.6136 55.0781 26.9531ZM37.5 42.1875C34.4869 42.1875 31.5415 41.294 29.0362 39.6201C26.531 37.9461 24.5783 35.5668 23.4253 32.7831C22.2722 29.9994 21.9705 26.9362 22.5584 23.9811C23.1462 21.0259 24.5971 18.3114 26.7277 16.1808C28.8582 14.0502 31.5727 12.5993 34.5279 12.0115C37.4831 11.4237 40.5462 11.7254 43.3299 12.8784C46.1137 14.0315 48.493 15.9841 50.1669 18.4894C51.8409 20.9946 52.7344 23.9401 52.7344 26.9531C52.7298 30.9921 51.1233 34.8644 48.2673 37.7204C45.4113 40.5764 41.539 42.1829 37.5 42.1875Z" fill="#004D85"/>
<path id="Vector_3" d="M46.82 23.0673L41.106 22.237L38.5506 17.0597C38.4428 16.877 38.2892 16.7255 38.1049 16.6203C37.9207 16.5151 37.7122 16.4597 37.5 16.4597C37.2878 16.4597 37.0793 16.5151 36.8951 16.6203C36.7108 16.7255 36.5572 16.877 36.4494 17.0597L33.894 22.237L28.18 23.0673C27.9634 23.0986 27.76 23.1899 27.5927 23.3308C27.4254 23.4718 27.3009 23.6567 27.2332 23.8648C27.1656 24.0728 27.1575 24.2956 27.2099 24.508C27.2624 24.7204 27.3732 24.9139 27.5299 25.0665L31.6658 29.0966L30.6896 34.7872C30.6528 35.0026 30.6769 35.224 30.7593 35.4264C30.8416 35.6287 30.9789 35.8041 31.1556 35.9326C31.3324 36.061 31.5415 36.1376 31.7594 36.1535C31.9773 36.1694 32.1954 36.1241 32.3889 36.0226L37.5 33.3361L42.6109 36.0226C42.8044 36.1241 43.0224 36.1694 43.2404 36.1535C43.4583 36.1376 43.6674 36.061 43.8441 35.9326C44.0208 35.8041 44.1581 35.6287 44.2405 35.4264C44.3228 35.224 44.3469 35.0026 44.3101 34.7872L43.3339 29.0966L47.4698 25.0665C47.6265 24.9139 47.7374 24.7204 47.7898 24.508C47.8423 24.2956 47.8342 24.0728 47.7666 23.8648C47.6989 23.6567 47.5744 23.4718 47.4071 23.3308C47.2397 23.1899 47.0365 23.0986 46.82 23.0673ZM41.2571 27.8486C41.1213 27.9813 41.0196 28.1451 40.961 28.3257C40.9024 28.5064 40.8885 28.6987 40.9206 28.8859L41.5992 32.8433L38.0447 30.975C37.8766 30.8866 37.6896 30.8405 37.4998 30.8405C37.3099 30.8405 37.1229 30.8866 36.9548 30.975L33.4008 32.8429L34.0794 28.8854C34.1115 28.6982 34.0976 28.506 34.039 28.3253C33.9804 28.1446 33.8787 27.9808 33.7429 27.8481L30.8672 25.0454L34.8407 24.468C35.0288 24.4408 35.2074 24.3681 35.3611 24.2564C35.5148 24.1446 35.639 23.9971 35.723 23.8266L37.5 20.2266L39.2773 23.8268C39.3612 23.9973 39.4854 24.1448 39.6391 24.2566C39.7929 24.3684 39.9715 24.441 40.1596 24.4683L44.133 25.0457L41.2571 27.8486Z" fill="#004D85"/>
</g>
</g>
<defs>
<clipPath id="clip0_52_1015">
<rect width="75" height="75" fill="white"/>
</clipPath>
</defs>
</svg>
