<svg width="75" height="75" viewBox="0 0 75 75" fill="none" xmlns="http://www.w3.org/2000/svg">
<g id="diamond" clip-path="url(#clip0_52_1005)">
<path id="Vector" d="M46.2886 38.0859C45.48 38.0859 44.8237 38.7422 44.8237 39.5508C44.8237 40.3594 45.48 41.0156 46.2886 41.0156C47.0972 41.0156 47.7534 40.3594 47.7534 39.5508C47.7534 38.7422 47.0972 38.0859 46.2886 38.0859Z" fill="#004D85"/>
<path id="Vector_2" d="M0.364963 34.6579C0.368918 34.6625 0.372433 34.6676 0.376535 34.672C0.377121 34.6726 0.37756 34.6733 0.378146 34.674L36.4133 74.5178C36.6818 74.8147 37.0887 75 37.4998 75C37.9095 75 38.3157 74.8167 38.5862 74.5178L74.6214 34.674C74.622 34.6734 74.6224 34.6727 74.623 34.672C74.6271 34.6674 74.6305 34.6625 74.6346 34.6579C75.1041 34.1238 75.1164 33.3394 74.6903 32.7929C74.6861 32.7876 74.6831 32.7816 74.6788 32.7763L62.9601 18.1279C62.6822 17.7804 62.2612 17.5781 61.8162 17.5781C55.8445 17.5781 18.0424 17.5781 13.1834 17.5781C12.7384 17.5781 12.3175 17.7804 12.0395 18.1279L0.320724 32.7763C0.316476 32.7816 0.313546 32.7875 0.309298 32.7929C-0.121219 33.3451 -0.0992464 34.1298 0.364963 34.6579ZM29.54 20.5078H45.4594L52.4907 32.2266H22.5087L29.54 20.5078ZM22.1689 35.1562H52.8304L37.4996 69.9062L22.1689 35.1562ZM56.0327 35.1562H70.2351L42.5066 65.8151L56.0327 35.1562ZM18.9667 35.1562L32.4926 65.8151L4.76433 35.1562H18.9667ZM70.487 32.2266H55.9072L48.8759 20.5078H61.112L70.487 32.2266ZM13.8872 20.5078H26.1234L19.0921 32.2266H4.51223L13.8872 20.5078Z" fill="#004D85"/>
<path id="Vector_3" d="M40.4292 38.0859H29.5571C28.7481 38.0859 28.0923 38.7417 28.0923 39.5508C28.0923 40.3598 28.7481 41.0156 29.5571 41.0156H40.4292C41.2382 41.0156 41.894 40.3598 41.894 39.5508C41.894 38.7417 41.2382 38.0859 40.4292 38.0859Z" fill="#004D85"/>
<path id="Vector_4" d="M37.4995 11.7188C38.3085 11.7188 38.9644 11.0629 38.9644 10.2539V1.46484C38.9644 0.655811 38.3085 0 37.4995 0C36.6905 0 36.0347 0.655811 36.0347 1.46484V10.2539C36.0347 11.0629 36.6905 11.7188 37.4995 11.7188Z" fill="#004D85"/>
<path id="Vector_5" d="M47.3245 11.2897L53.1839 5.43033C53.7559 4.85831 53.7559 3.93077 53.1839 3.35861C52.6118 2.78644 51.6843 2.78658 51.1121 3.35861L45.2527 9.21798C44.6807 9.79 44.6807 10.7175 45.2527 11.2897C45.8248 11.8617 46.7523 11.8619 47.3245 11.2897Z" fill="#004D85"/>
<path id="Vector_6" d="M27.6747 11.2897C28.2467 11.8617 29.1742 11.8617 29.7464 11.2897C30.3184 10.7177 30.3184 9.79012 29.7464 9.21796L23.887 3.35858C23.315 2.78656 22.3875 2.78656 21.8153 3.35858C21.2431 3.9306 21.2433 4.85814 21.8153 5.43031L27.6747 11.2897Z" fill="#004D85"/>
</g>
<defs>
<clipPath id="clip0_52_1005">
<rect width="75" height="75" fill="white"/>
</clipPath>
</defs>
</svg>
