<svg width="75" height="75" viewBox="0 0 75 75" fill="none" xmlns="http://www.w3.org/2000/svg">
<g id="quality 1">
<g id="g213">
<g id="g215">
<g id="Clip path group">
<mask id="mask0_52_985" style="mask-type:luminance" maskUnits="userSpaceOnUse" x="0" y="0" width="75" height="75">
<g id="clipPath221">
<path id="path219" d="M0 7.62939e-06H75V75H0V7.62939e-06Z" fill="white"/>
</g>
</mask>
<g mask="url(#mask0_52_985)">
<g id="g217">
<g id="g223">
<path id="path225" d="M32.1257 55.2807L21.5887 73.5315L19.0103 63.9092L9.35254 66.497L19.4632 48.9848" stroke="#004D85" stroke-width="3" stroke-miterlimit="10" stroke-linecap="round" stroke-linejoin="round"/>
</g>
<g id="g227">
<path id="path229" d="M55.4974 48.9168L65.6473 66.4969L55.9896 63.9091L53.4112 73.5316L42.8208 55.1885" stroke="#004D85" stroke-width="3" stroke-miterlimit="10" stroke-linecap="round" stroke-linejoin="round"/>
</g>
<g id="g231">
<path id="path233" d="M40.1117 1.99179C43.0305 0.797209 46.3878 1.69677 48.3182 4.19066C49.4448 5.64613 51.098 6.60063 52.9217 6.84848C56.0468 7.27343 58.5044 9.731 58.9294 12.8561C59.1772 14.6798 60.1317 16.333 61.5872 17.4597C64.0811 19.39 64.9806 22.7473 63.786 25.6662C63.0889 27.3695 63.0889 29.2785 63.786 30.9818C64.9806 33.9006 64.0811 37.2577 61.5872 39.1883C60.1317 40.3149 59.1772 41.9681 58.9294 43.7917V43.7918C58.5044 46.9168 56.0468 49.3745 52.9217 49.7994C51.098 50.0473 49.4448 51.0018 48.3182 52.4571C46.3878 54.9512 43.0305 55.8507 40.1117 54.6561C38.4084 53.959 36.4994 53.959 34.7961 54.6561C31.8772 55.8507 28.5201 54.9512 26.5896 52.4571C25.463 51.0018 23.8097 50.0473 21.9861 49.7994C18.8612 49.3745 16.4033 46.9168 15.9785 43.7918V43.7917C15.7305 41.9681 14.776 40.3149 13.3207 39.1883C10.8267 37.2577 9.92711 33.9006 11.1217 30.9818C11.8188 29.2785 11.8188 27.3695 11.1217 25.6662C9.92711 22.7473 10.8267 19.39 13.3207 17.4597C14.776 16.333 15.7305 14.6798 15.9785 12.8561C16.4033 9.731 18.861 7.27343 21.986 6.84848C23.8096 6.60063 25.463 5.64613 26.5896 4.19066C28.5201 1.69677 31.8772 0.797209 34.7961 1.99179C36.4994 2.68891 38.4084 2.68891 40.1117 1.99179Z" stroke="#004D85" stroke-width="3" stroke-miterlimit="10" stroke-linecap="round" stroke-linejoin="round"/>
</g>
<g id="g235">
<path id="path237" d="M35.8229 37.0466L27.2751 28.4987L31.8329 23.9412L35.8229 27.9315L43.1674 20.5872L47.7248 25.1447L35.8229 37.0466Z" stroke="#004D85" stroke-width="3" stroke-miterlimit="10" stroke-linecap="round" stroke-linejoin="round"/>
</g>
<g id="g239">
<path id="path241" d="M31.0235 12.4703C24.5205 15.049 19.9219 21.3959 19.9219 28.8169C19.9219 38.525 27.7919 46.3951 37.5 46.3951C47.2081 46.3951 55.0781 38.525 55.0781 28.8169C55.0781 21.3959 50.4795 15.049 43.9767 12.4703" stroke="#004D85" stroke-width="3" stroke-miterlimit="10" stroke-linecap="round" stroke-linejoin="round"/>
</g>
</g>
</g>
</g>
</g>
</g>
</g>
</svg>
