<svg width="75" height="75" viewBox="0 0 75 75" fill="none" xmlns="http://www.w3.org/2000/svg">
<g clip-path="url(#clip0_52_976)">
<path d="M67.1875 68.75H7.8125C3.50625 68.75 0 65.2438 0 60.9375V54.6875C0 53.825 0.7 53.125 1.5625 53.125H3.125C6.57188 53.125 9.375 50.3219 9.375 46.875C9.375 43.4281 6.57188 40.625 3.125 40.625H1.5625C0.7 40.625 0 39.925 0 39.0625V32.8125C0 28.5063 3.50625 25 7.8125 25H67.1875C71.4938 25 75 28.5063 75 32.8125V39.0625C75 39.925 74.3 40.625 73.4375 40.625H71.875C68.4281 40.625 65.625 43.4281 65.625 46.875C65.625 48.5438 66.275 50.1125 67.4563 51.2938C68.6344 52.475 70.2031 53.125 71.8719 53.125H73.4344C74.2969 53.125 74.9969 53.825 74.9969 54.6875V60.9375C75 65.2438 71.4938 68.75 67.1875 68.75ZM3.125 56.25V60.9375C3.125 63.5219 5.22813 65.625 7.8125 65.625H67.1875C69.7719 65.625 71.875 63.5219 71.875 60.9375V56.25C69.3719 56.25 67.0156 55.275 65.2469 53.5063C63.475 51.7344 62.5 49.3781 62.5 46.875C62.5 41.7063 66.7063 37.5 71.875 37.5V32.8125C71.875 30.2281 69.7719 28.125 67.1875 28.125H7.8125C5.22813 28.125 3.125 30.2281 3.125 32.8125V37.5C8.29375 37.5 12.5 41.7063 12.5 46.875C12.5 52.0438 8.29375 56.25 3.125 56.25Z" fill="#004D85"/>
<path d="M26.5625 31.25C25.7 31.25 25 30.55 25 29.6875V26.5625C25 25.7 25.7 25 26.5625 25C27.425 25 28.125 25.7 28.125 26.5625V29.6875C28.125 30.55 27.425 31.25 26.5625 31.25Z" fill="#004D85"/>
<path d="M26.5625 57.6906C25.7 57.6906 25 56.9906 25 56.1281V50.8437C25 49.9812 25.7 49.2812 26.5625 49.2812C27.425 49.2812 28.125 49.9781 28.125 50.8437V56.1312C28.125 56.9937 27.425 57.6906 26.5625 57.6906ZM26.5625 44.4719C25.7 44.4719 25 43.7719 25 42.9094V37.6219C25 36.7594 25.7 36.0594 26.5625 36.0594C27.425 36.0594 28.125 36.7594 28.125 37.6219V42.9094C28.125 43.7719 27.425 44.4719 26.5625 44.4719Z" fill="#004D85"/>
<path d="M26.5625 68.75C25.7 68.75 25 68.05 25 67.1875V64.0625C25 63.2 25.7 62.5 26.5625 62.5C27.425 62.5 28.125 63.2 28.125 64.0625V67.1875C28.125 68.05 27.425 68.75 26.5625 68.75Z" fill="#004D85"/>
<path d="M7.81246 28.125C7.17809 28.125 6.58121 27.7375 6.34996 27.1094C6.04684 26.3 6.45621 25.4 7.26559 25.1L56.9531 6.54688C59.3687 5.64063 62.2062 6.99688 63.0312 9.43126L68.6656 26.0594C68.9406 26.8781 68.5031 27.7625 67.6875 28.0406C66.8781 28.3188 65.9843 27.8781 65.7062 27.0625L60.0718 10.4344C59.7968 9.62188 58.8531 9.17813 58.0437 9.47188L8.35621 28.025C8.17809 28.0938 7.99371 28.125 7.81246 28.125Z" fill="#004D85"/>
</g>
<defs>
<clipPath id="clip0_52_976">
<rect width="75" height="75" fill="white"/>
</clipPath>
</defs>
</svg>
